rec1_004.mot
nRows=17
nColumns=19

name rec1_004.mot
datacolumns 19
datarows 17
range 10.0040794008 10.0360796137
endheader
time	ground_force_vx	ground_force_vy	ground_force_vz	ground_force_px	ground_force_py	ground_force_pz	1_ground_force_vx	1_ground_force_vy	1_ground_force_vz	1_ground_force_px	1_ground_force_py	1_ground_force_pz	ground_torque_x	ground_torque_y	ground_torque_z	1_ground_torque_x	1_ground_torque_y	1_ground_torque_z	
       10.0040794008	        1.8369765298	      515.1168177224	      -40.8543903764	       -0.7000000000	       -0.0180000000	        0.5600000000	       -0.1249072725	        2.5538857634	        0.3984456425	       -0.7000000000	       -0.0180000000	       -0.5600000000	      237.7131589372	       21.3226248111	      516.2384313101	       -0.2132861066	        0.5382155896	        0.4365991060	
       10.0060790967	        2.4728611315	      516.9415816929	      -40.6131146892	       -0.7000000000	       -0.0180000000	        0.5600000000	       -0.0709658360	        2.5583594556	        0.3925780011	       -0.7000000000	       -0.0180000000	       -0.5600000000	      238.5683075091	       20.8640020188	      516.8713231662	       -0.2160908597	        0.5512809442	        0.4593444964	
       10.0080794725	        3.1592640033	      518.9190404880	      -40.3573303889	       -0.7000000000	       -0.0180000000	        0.5600000000	       -0.0191370907	        2.5709119299	        0.3897937215	       -0.7000000000	       -0.0180000000	       -0.5600000000	      239.5024936433	       20.3698505633	      517.6181143577	       -0.2201199240	        0.5625531306	        0.4791906819	
       10.0100791682	        3.8959586376	      521.0604776997	      -40.0925586229	       -0.7000000000	       -0.0180000000	        0.5600000000	        0.0289401523	        2.5917971480	        0.3903126389	       -0.7000000000	       -0.0180000000	       -0.5600000000	      240.5211532001	       19.8451246165	      518.4920267921	       -0.2255291528	        0.5713176624	        0.4969833501	
       10.0120793441	        4.6798930105	      523.3768119428	      -39.8243756633	       -0.7000000000	       -0.0180000000	        0.5600000000	        0.0723451363	        2.6209026531	        0.3939777763	       -0.7000000000	       -0.0180000000	       -0.5600000000	      241.6295053174	       19.2955995109	      519.5059482164	       -0.2324047873	        0.5774260339	        0.5129855553	
       10.0140790799	        5.5059331029	      525.8785977383	      -39.5579535500	       -0.7000000000	       -0.0180000000	        0.5600000000	        0.1110070781	        2.6578765435	        0.4004016484	       -0.7000000000	       -0.0180000000	       -0.5600000000	      242.8324322466	       18.7278713842	      520.6729133598	       -0.2408220004	        0.5812869924	        0.5269617545	
       10.0160794557	        6.3679169848	      528.5756582716	      -39.2975762853	       -0.7000000000	       -0.0180000000	        0.5600000000	        0.1454234862	        2.7023295642	        0.4090411670	       -0.7000000000	       -0.0180000000	       -0.5600000000	      244.1342607848	       18.1487637939	      522.0059721061	       -0.2508395205	        0.5836974632	        0.5387156508	
       10.0180791115	        7.2595118071	      531.4764589804	      -39.0461874171	       -0.7000000000	       -0.0180000000	        0.5600000000	        0.1760756557	        2.7541154551	        0.4192257793	       -0.7000000000	       -0.0180000000	       -0.5600000000	      245.5384601679	       17.5639560932	      523.5172813371	       -0.2625145022	        0.5855277317	        0.5487305315	
       10.0200794473	        8.1745685837	      534.5876027059	      -38.8051359585	       -0.7000000000	       -0.0180000000	        0.5600000000	        0.2028633165	        2.8135626323	        0.4302206323	       -0.7000000000	       -0.0180000000	       -0.5600000000	      247.0474147329	       16.9771289986	      525.2169110235	       -0.2759664788	        0.5873765896	        0.5584176355	
       10.0220791830	        9.1070226363	      537.9134269455	      -38.5742335676	       -0.7000000000	       -0.0180000000	        0.5600000000	        0.2249134390	        2.8812226595	        0.4412632693	       -0.7000000000	       -0.0180000000	       -0.5600000000	      248.6622838604	       16.3901993548	      527.1118210929	       -0.2913032175	        0.5894777864	        0.5695841395	
       10.0240795590	       10.0506161581	      541.4554878411	      -38.3521022203	       -0.7000000000	       -0.0180000000	        0.5600000000	        0.2409003779	        2.9571998731	        0.4516477042	       -0.7000000000	       -0.0180000000	       -0.5600000000	      250.3828416522	       15.8043811267	      529.2052415952	       -0.3084430074	        0.5918389283	        0.5834666703	
       10.0260792947	       10.9987359665	      545.2121882373	      -38.1367306095	       -0.7000000000	       -0.0180000000	        0.5600000000	        0.2497177685	        3.0408103179	        0.4609555845	       -0.7000000000	       -0.0180000000	       -0.5600000000	      252.2073463552	       15.2211463641	      531.4967277472	       -0.3271250735	        0.5943536565	        0.6002602634	
       10.0280795105	       11.9445585053	      549.1789152570	      -37.9260833760	       -0.7000000000	       -0.0180000000	        0.5600000000	        0.2511437812	        3.1309417029	        0.4692200558	       -0.7000000000	       -0.0180000000	       -0.5600000000	      254.1325627524	       14.6420668707	      533.9828386678	       -0.3471141572	        0.5968890963	        0.6196141122	
       10.0300792463	       12.8815370662	      553.3483371390	      -37.7186440960	       -0.7000000000	       -0.0180000000	        0.5600000000	        0.2461245559	        3.2266502835	        0.4768358496	       -0.7000000000	       -0.0180000000	       -0.5600000000	      256.1538815432	       14.0683424485	      536.6576512883	       -0.3683332325	        0.5993912665	        0.6416396890	
       10.0320795422	       13.8040823517	      557.7103160925	      -37.5138396450	       -0.7000000000	       -0.0180000000	        0.5600000000	        0.2364445129	        3.3274577750	        0.4842945605	       -0.7000000000	       -0.0180000000	       -0.5600000000	      258.2653785153	       13.5009898291	      539.5124847448	       -0.3908342590	        0.6018997320	        0.6676104940	
       10.0340792779	       14.7081786784	      562.2516043237	      -37.3122524515	       -0.7000000000	       -0.0180000000	        0.5600000000	        0.2238715975	        3.4332409351	        0.4919045066	       -0.7000000000	       -0.0180000000	       -0.5600000000	      260.4598003642	       12.9412024487	      542.5352447297	       -0.4147250187	        0.6044555635	        0.6998346173	
       10.0360796137	       15.5916976422	      566.9558171351	      -37.1156271111	       -0.7000000000	       -0.0180000000	        0.5600000000	        0.2092744363	        3.5437978902	        0.4996652199	       -0.7000000000	       -0.0180000000	       -0.5600000000	      262.7286157766	       12.3908217218	      545.7101616795	       -0.4401098626	        0.6069621870	        0.7407545602	
